<svg width="50" height="50" viewBox="0 0 50 50" fill="none" xmlns="http://www.w3.org/2000/svg">
<path d="M50 25C50 20.0555 48.5338 15.222 45.7867 11.1107C43.0397 6.99952 39.1352 3.7952 34.5671 1.90301C29.9989 0.0108208 24.9723 -0.484263 20.1227 0.480368C15.2732 1.445 10.8186 3.82602 7.32233 7.32233C3.82602 10.8186 1.445 15.2732 0.480368 20.1227C-0.484263 24.9723 0.0108209 29.9989 1.90301 34.5671C3.7952 39.1352 6.99952 43.0397 11.1107 45.7867C15.222 48.5338 20.0555 50 25 50L25 25H50Z" fill="#E5E5E5"/>
<path d="M0 25C0 29.9445 1.46622 34.778 4.21326 38.8893C6.9603 43.0005 10.8648 46.2048 15.4329 48.097C20.0011 49.9892 25.0277 50.4843 29.8773 49.5196C34.7268 48.555 39.1814 46.174 42.6777 42.6777C46.174 39.1814 48.555 34.7268 49.5196 29.8773C50.4843 25.0277 49.9892 20.0011 48.097 15.4329C46.2048 10.8648 43.0005 6.96029 38.8893 4.21326C34.778 1.46622 29.9445 -5.8963e-08 25 0L25 25L0 25Z" fill="black"/>
</svg>
