<svg width="512" height="512" viewBox="0 0 512 512" fill="none" xmlns="http://www.w3.org/2000/svg">
<rect width="512" height="512" fill="url(#paint0_linear_202_31)"/>
<path d="M267.604 126.839C293.12 130.182 317.358 139.989 338.021 155.329C342.186 158.621 346.42 161.645 350.115 165.407C378.302 191.46 395.545 227.243 398.359 265.523C406.254 266.248 413.745 269.345 419.849 274.405C425.953 279.466 430.383 286.253 432.559 293.878C435.105 303.313 434.692 313.304 431.375 322.497C428.059 331.69 421.998 339.643 414.014 345.279C406.623 350.453 397.552 353.342 388.481 353.141C385.122 353.141 381.762 352.066 378.403 351.931C377.126 353.409 376.185 355.224 375.178 356.836C362.949 376.125 346.478 392.368 327.021 404.326C307.563 416.285 285.633 423.644 262.9 425.842C255.509 426.312 248.185 427.186 240.727 426.312C214.517 425.056 189.093 416.96 166.983 402.829C144.872 388.699 126.846 369.026 114.698 345.768C102.549 322.51 96.7002 296.477 97.7337 270.257C98.7672 244.037 106.647 218.545 120.589 196.315C133.185 176.116 150.405 159.203 170.827 146.971C191.248 134.738 214.287 127.539 238.039 125.966C247.849 125.025 257.794 125.764 267.604 126.839Z" fill="black"/>
<path fill-rule="evenodd" clip-rule="evenodd" d="M336.677 159.36C310.508 139.401 278.333 128.929 245.431 129.661C236.696 129.527 227.826 130.736 219.226 132.349C193.427 137.527 169.5 149.559 149.959 167.18C130.417 184.801 115.983 207.36 108.173 232.488C100.364 257.615 99.4667 284.382 105.577 309.976C111.687 335.569 124.578 359.045 142.896 377.934C165.149 400.862 194.273 415.905 225.85 420.78C257.427 425.655 289.732 420.095 317.863 404.945C341.38 392.313 361 373.164 374.573 350.184L372.557 349.109C370.676 348.168 368.727 347.093 367.182 345.75C365.704 344.406 366.98 341.852 368.996 342.592C370.004 343.062 371.012 343.667 371.952 344.204C378.152 347.7 385.228 349.331 392.332 348.902C399.436 348.473 406.265 346.002 411.999 341.785C419.282 336.645 424.803 329.383 427.81 320.99C430.816 312.597 431.16 303.481 428.796 294.886C426.275 286.14 420.506 278.688 412.67 274.056C407.915 271.311 402.584 269.711 397.103 269.385C391.621 269.058 386.139 270.013 381.09 272.175C380.015 272.712 378.806 273.183 377.731 273.048C376.051 272.914 375.849 270.226 377.328 269.554C382.703 266.867 388.414 265.792 394.394 265.254C391.678 227.42 374.324 192.134 346.016 166.886C343.06 164.198 340.171 161.443 336.677 159.293V159.36ZM408.975 291.19C410.319 290.384 409.848 287.763 408.034 287.83C406.69 287.83 405.212 288.368 403.868 288.905L402.928 289.174C396.832 291.08 391.057 293.888 385.794 297.506C384.316 298.85 384.316 300.462 385.861 301.672C387.005 302.336 388.17 302.964 389.355 303.553C392.692 304.936 395.676 307.048 398.09 309.735C397.955 311.012 396.746 312.019 395.805 312.759L395.671 312.893C393.05 314.909 389.758 316.252 386.533 317.596C384.853 318.268 383.241 318.94 381.762 319.679C380.62 320.217 380.015 321.157 380.687 322.3C381.359 323.644 382.837 323.039 384.047 322.636L384.45 322.501L388.078 320.956C391.707 319.41 395.469 317.932 398.426 315.581C400.24 314.17 401.853 312.154 402.054 309.735C401.718 307.45 400.24 305.905 398.493 304.494C396.032 302.67 393.425 301.052 390.699 299.656L389.96 299.253C393.588 297.237 397.216 295.49 401.113 294.079L404.473 292.937C406.012 292.459 407.516 291.875 408.975 291.19Z" fill="#F2D3B1"/>
<path d="M263.774 245.433C272.011 244.766 280.27 246.436 287.601 250.251C294.932 254.065 301.039 259.87 305.221 266.998C309.403 274.127 311.489 282.29 311.242 290.55C310.994 298.811 308.421 306.834 303.82 313.699C299.665 319.813 294.03 324.777 287.441 328.127C280.851 331.477 273.521 333.105 266.133 332.86C258.744 332.615 251.538 330.504 245.185 326.724C238.833 322.944 233.54 317.618 229.799 311.242C226.059 304.866 223.993 297.646 223.793 290.257C223.594 282.867 225.268 275.547 228.659 268.979C232.05 262.41 237.048 256.806 243.188 252.689C249.328 248.572 256.41 246.076 263.774 245.433Z" fill="black"/>
<path d="M262.43 249.464C267.701 248.672 273.077 248.941 278.243 250.254C283.409 251.568 288.261 253.899 292.514 257.112C296.767 260.324 300.336 264.354 303.012 268.964C305.688 273.574 307.416 278.672 308.096 283.958C308.776 289.245 308.393 294.614 306.971 299.751C305.549 304.888 303.116 309.69 299.814 313.874C296.512 318.058 292.407 321.541 287.742 324.119C283.076 326.696 277.943 328.317 272.643 328.884C262.229 330 251.791 326.991 243.569 320.503C235.347 314.014 229.994 304.563 228.658 294.174C227.322 283.785 230.109 273.287 236.422 264.929C242.736 256.571 252.072 251.019 262.43 249.464Z" fill="white"/>
<path d="M149.481 260.685C158.163 259.834 166.867 262.058 174.076 266.97C181.285 271.882 186.539 279.17 188.922 287.562C191.108 295.617 190.528 304.173 187.276 311.859C184.023 319.546 178.286 325.92 170.982 329.96C165.472 333.03 159.263 334.631 152.955 334.607C146.647 334.584 140.45 332.937 134.963 329.825C129.475 326.714 124.881 322.242 121.622 316.84C118.363 311.439 116.55 305.29 116.355 298.984C115.981 289.577 119.205 280.38 125.371 273.265C131.537 266.15 140.183 261.652 149.548 260.685H149.481Z" fill="black"/>
<path d="M147.532 264.918C152.755 263.95 158.135 264.26 163.212 265.822C168.29 267.384 172.914 270.151 176.689 273.888C180.465 277.624 183.281 282.218 184.897 287.279C186.512 292.339 186.879 297.716 185.966 302.949C184.864 309.944 181.541 316.399 176.488 321.359C171.434 326.32 164.919 329.523 157.905 330.495C150.89 331.467 143.749 330.156 137.538 326.756C131.326 323.356 126.373 318.048 123.411 311.616C121.249 307.018 120.174 301.984 120.268 296.904C120.363 291.824 121.625 286.834 123.957 282.319C126.289 277.805 129.628 273.888 133.716 270.87C137.804 267.853 142.531 265.816 147.532 264.918Z" fill="white"/>
<path d="M247.11 274.459C255.173 272.511 263.841 277.281 266.797 284.941C268.356 288.985 268.356 293.463 266.797 297.506C265.719 300.278 263.94 302.723 261.634 304.601C259.328 306.48 256.575 307.729 253.642 308.226C250.71 308.723 247.698 308.451 244.902 307.437C242.106 306.423 239.621 304.701 237.689 302.439C235.757 300.178 234.445 297.454 233.88 294.534C233.315 291.614 233.517 288.597 234.466 285.778C235.415 282.959 237.079 280.435 239.295 278.451C241.511 276.467 244.204 275.092 247.11 274.459ZM160.971 281.783C164.975 281.028 169.117 281.87 172.508 284.131C175.899 286.392 178.27 289.89 179.112 293.878C179.583 297.708 179.516 301.538 177.365 304.763C175.77 307.452 173.409 309.604 170.585 310.944C167.76 312.285 164.6 312.753 161.508 312.288C157.939 311.683 154.694 309.85 152.334 307.105C149.974 304.361 148.647 300.878 148.584 297.259C148.52 293.64 149.723 290.112 151.985 287.286C154.247 284.46 157.425 282.514 160.971 281.783Z" fill="black"/>
<path d="M199.74 215.935C201.286 215.868 201.689 217.078 201.554 218.354C201.218 221.512 201.017 224.939 199.942 227.896C199.068 228.164 198.195 228.299 197.254 228.5C196.515 225.275 197.254 221.58 197.725 218.354C197.993 217.212 198.262 215.734 199.74 215.935ZM213.716 220.101C213.716 222.319 213.447 224.402 213.246 226.552C241.265 226.888 269.216 226.82 297.235 227.089C298.713 227.089 299.923 227.627 301.267 228.164C300.796 229.172 301.065 230.718 299.721 230.852C294.346 231.793 288.568 231.255 283.058 231.524C271.434 231.927 259.742 232.196 248.118 232.532C236.696 232.666 225.273 233.338 213.851 233.472C211.566 233.741 209.752 231.658 208.946 229.777C208.946 226.82 209.617 223.662 210.289 220.706C211.23 219.093 212.305 219.631 213.649 220.101H213.716ZM188.855 223.864C188.855 227.156 188.855 231.121 187.377 234.077C185.16 235.085 182.539 235.287 180.255 235.757L128.517 245.164C125.695 245.701 122.671 246.642 119.782 246.575C118.035 246.239 117.565 244.089 119.178 243.215C121.328 242.275 123.881 242.073 126.165 241.468L184.757 227.828L185.63 223.998C186.705 223.864 187.78 223.864 188.855 223.864Z" fill="black"/>
<path d="M246.102 339.098L246.909 340.643C247.178 342.457 245.565 342.928 244.356 343.599C226.336 351.986 206.561 355.904 186.705 355.022C183.346 354.619 179.852 354.552 176.626 353.678C175.081 353.006 174.879 350.991 176.425 350.184C178.239 350.184 180.12 350.789 181.935 350.856C186.772 351.528 191.543 351.327 196.381 351.327C211.499 350.789 226.617 346.757 240.526 340.912C242.407 340.106 244.02 339.165 246.102 339.098Z" fill="black"/>
<path d="M281.042 85.3149C289.508 85.6509 297.84 87.2635 305.701 90.2199C318.669 95.2593 330.562 103.524 340.036 113.67C346.755 120.591 352.467 128.586 358.984 135.709C362.598 139.54 366.659 142.924 371.079 145.787C377.328 149.819 384.786 151.499 391.841 153.85C399.501 156.202 406.959 159.226 413.678 163.66C424.429 170.783 432.492 182.272 436.523 194.501C439.772 203.587 440.538 213.376 438.741 222.856C438.405 224.2 436.053 224.469 435.448 223.125C434.441 221.042 433.769 218.757 432.559 216.675C429.122 210.76 424.793 205.412 419.726 200.817C422.451 204.747 424.248 209.245 424.981 213.97C425.714 218.696 425.365 223.526 423.959 228.097C422.48 232.801 419.322 236.294 416.03 239.856C416.702 243.215 417.643 246.508 417.911 249.934C418.425 254.93 417.492 259.967 415.224 264.448C413.947 266.867 412.603 269.957 410.386 271.704C408.773 272.376 406.623 270.764 405.011 270.361C402.102 269.342 399.006 268.975 395.94 269.286C395.268 270.092 394.865 271.033 394.394 271.906C390.161 280.372 384.988 288.368 379.612 296.095C374.044 304.066 367.239 311.098 359.455 316.924C357.17 318.403 354.012 320.284 351.325 318.739C348.906 317.059 349.04 313.363 349.309 310.676C350.72 299.791 350.048 288.435 350.182 277.281C340.955 277.2 331.897 274.797 323.843 270.293C314.646 265.296 306.898 258.004 301.353 249.127C295.807 240.249 292.653 230.088 292.196 219.631C285.123 224.997 276.88 228.612 268.141 230.18C266.126 230.516 263.304 231.121 261.422 229.911C260.481 228.433 261.019 227.492 262.094 226.35C270.502 218.801 276.586 209.012 279.631 198.13C280.893 193.824 281.124 189.282 280.307 184.87C279.49 180.458 277.647 176.3 274.928 172.731C270.45 167.585 264.365 164.104 257.659 162.854C250.276 161.369 242.655 161.552 235.352 163.392C234.142 163.593 233.135 164.064 231.992 163.392C230.648 161.981 231.119 160.435 231.186 158.688C224.042 160.958 217.288 164.312 211.163 168.633C210.021 169.372 209.147 169.976 207.803 169.439C205.788 168.565 204.242 166.617 202.361 165.407C195.652 161.223 188.147 158.477 180.322 157.344C182.338 159.159 184.689 160.973 186.436 163.123C187.31 164.265 187.579 165.743 186.436 166.818C185.294 167.49 183.614 167.289 182.27 167.356C174.14 167.289 165.473 167.625 157.746 170.38C155.797 171.791 154.588 174.613 153.311 176.628C144.609 191.75 140.238 208.976 140.679 226.417C140.612 227.425 140.679 228.433 140.074 229.239C138.462 230.18 137.319 229.239 135.908 228.5C131.541 225.813 127.308 222.52 124.015 218.556C120.641 225.514 114.76 230.938 107.553 233.741C105.538 239.251 104.866 245.433 103.589 251.278C102.917 254.436 102.783 257.729 102.044 260.887C101.641 262.499 99.692 262.835 98.7513 261.424C92.8385 253.563 91.629 244.29 90.2852 234.816C87.2615 234.077 84.4395 233.136 81.9534 231.322C80.408 230.18 78.4594 228.5 78.3922 226.417C78.2579 225.342 79.6689 224.603 80.408 223.931C82.8941 222.117 85.1114 220.034 87.3959 217.951C81.3487 215.935 76.4437 211.501 74.092 205.521C71.3709 197.562 71.7793 188.866 75.2343 181.197C80.2841 169.358 89.0918 159.512 100.297 153.178C106.467 149.621 113.354 147.486 120.454 146.93C122.134 138.732 124.822 130.804 128.988 123.413C135.221 112.314 144.688 103.378 156.128 97.7963C167.568 92.2143 180.437 90.2512 193.021 92.1685C206.073 94.223 218.38 99.5901 228.767 107.757C233.067 103.86 237.502 100.164 242.407 97.1407C253.906 89.6207 267.304 85.5198 281.042 85.3149Z" fill="black"/>
<path d="M279.026 89.212C288.292 89.2464 297.464 91.0717 306.037 94.5874C317.58 99.4557 327.99 106.662 336.61 115.753C344.135 123.144 350.182 132.282 357.573 139.807C363.016 145.183 369.063 150.02 376.32 152.775C386.264 156.672 396.612 158.621 406.153 163.795C413.013 167.315 419.004 172.319 423.69 178.442C431.535 188.789 435.803 201.406 435.852 214.39C429.804 204.714 421.271 194.972 410.722 190.134C409.177 189.328 407.362 190.403 407.765 192.15C408.572 193.762 410.05 195.039 411.192 196.315C414.149 199.473 417.105 202.9 418.919 206.797C422.01 213.248 422.346 220.908 419.994 227.627C418.785 231.121 416.433 233.674 413.947 236.362C413.074 237.437 411.797 238.243 412.335 239.788C413.678 245.701 415.022 251.144 413.813 257.258C412.805 261.021 410.991 264.649 408.841 267.875C405.212 266.531 401.718 265.724 397.821 265.456C398.023 264.313 398.493 263.037 398.09 262.029C397.418 261.29 396.41 260.819 395.469 261.558C394.798 262.23 394.327 263.238 393.924 264.112C388.817 275.064 382.501 285.412 375.379 295.289C371.885 299.925 367.988 304.427 363.688 308.391C360.698 311.394 357.222 313.87 353.407 315.715C352.736 312.557 353.407 309.668 353.542 306.51C353.945 300.664 354.214 294.751 353.945 288.905C353.676 284.941 353.743 281.044 353.743 277.08C363.728 276.379 373.104 272.026 380.083 264.851C381.225 263.507 380.822 261.894 379.075 261.491C375.67 260.669 372.469 259.16 369.668 257.057C375.379 257.258 381.023 256.721 386.331 254.503C393.416 251.837 399.242 246.61 402.659 239.856C404.979 234.817 405.683 229.184 404.675 223.73C404.406 221.848 401.92 220.908 401.181 223.058C401.584 228.231 401.987 233.136 399.434 237.974C394.058 249.195 380.217 254.571 368.391 252.958C366.913 252.756 364.897 251.614 363.553 252.42C363.217 252.891 362.949 253.361 362.881 253.966C365.3 259.341 370.004 262.029 375.178 264.246C370.861 267.904 365.801 270.579 360.348 272.087C354.895 273.595 349.18 273.9 343.597 272.981C333.74 271.312 324.489 267.099 316.759 260.759C309.028 254.419 303.086 246.172 299.52 236.832C296.899 230.247 295.959 223.394 295.891 216.339C295.891 214.457 293.741 213.516 292.33 214.928C285.288 220.884 276.769 224.83 267.671 226.35C273.443 220.368 278.066 213.376 281.311 205.722C284.085 199.106 285.104 191.884 284.267 184.758C283.394 178.51 280.572 172.664 276.07 168.229C269.947 162.365 261.954 158.844 253.494 158.285C247.446 157.694 241.344 158.08 235.419 159.427C235.755 157.882 236.696 156.471 235.553 155.06C234.613 153.783 232.731 154.522 231.455 154.724C223.356 157.115 215.722 160.863 208.878 165.81C200.412 157.546 186.974 154.052 175.551 152.708C163.994 151.364 151.967 152.238 140.746 155.396C137.433 156.32 134.216 157.558 131.138 159.091C129.659 159.83 129.727 162.048 131.272 162.585C132.078 163.056 133.221 162.317 133.96 162.048C144.509 157.277 156.805 155.799 168.227 156C170.31 156.135 172.931 156 174.745 157.412C177.298 159.293 179.583 161.577 182.002 163.66C173.613 163.112 165.193 164.068 157.141 166.482C154.655 167.557 153.109 170.111 151.698 172.328C148.339 177.838 145.114 183.751 142.896 189.798C138.663 200.884 136.849 212.912 136.715 224.737C132.011 221.647 127.308 217.884 124.62 212.845C123.545 211.03 122.94 209.082 122.201 207.133C121.529 205.722 119.178 205.789 118.909 207.604C118.64 210.09 120.387 212.979 121.596 215.062C119.581 220.437 115.818 224.737 111.047 227.828C106.344 230.718 101.036 231.524 95.5933 231.322C90.8227 231.389 86.3209 230.046 82.6253 226.955C85.649 224.2 89.0757 221.647 91.8306 218.623C92.0734 218.425 92.2668 218.173 92.3953 217.887C92.5238 217.602 92.5839 217.29 92.5708 216.977C92.5578 216.664 92.472 216.358 92.3201 216.084C92.1683 215.81 91.9547 215.575 91.6962 215.398C90.3524 214.726 88.8069 214.323 87.3959 213.785C83.1427 212.094 79.7351 208.783 77.9219 204.58C75.9915 199.732 75.5929 194.409 76.7797 189.328C79.1393 179.78 84.2847 171.15 91.5618 164.534C99.3192 156.795 109.541 152.017 120.454 151.028C121.529 150.894 122.537 150.827 123.478 150.155C124.419 148.677 124.553 146.526 124.956 144.779C126.972 135.977 130.533 127.444 135.707 120.12C141.975 111.165 150.635 104.154 160.699 99.8886C170.763 95.6231 181.824 94.275 192.618 95.9984C204.71 97.9407 216.123 102.884 225.811 110.377C224.87 111.52 222.048 112.998 222.854 114.745C223.056 115.753 224.467 116.089 225.206 115.484C228.969 112.931 232.127 109.437 235.755 106.547C247.984 96.6031 263.102 89.7496 279.026 89.212Z" fill="#0E0E0E"/>
<path d="M93.9807 235.287C97.1387 235.287 100.297 235.287 103.388 234.615C101.641 241.267 100.565 248.053 99.1545 254.772C96.304 248.629 94.5529 242.034 93.9807 235.287Z" fill="#0E0E0E"/>
<defs>
<linearGradient id="paint0_linear_202_31" x1="512" y1="0" x2="0" y2="512" gradientUnits="userSpaceOnUse">
<stop stop-color="#27BDFF"/>
<stop offset="1" stop-color="#C29EFE"/>
</linearGradient>
</defs>
</svg>
