<svg width="100" height="75" viewBox="0 0 100 75" fill="none" xmlns="http://www.w3.org/2000/svg">
<rect width="100" height="75" rx="20" fill="#262430"/>
<rect x="12.5" y="10" width="15" height="15" rx="7.5" fill="#E5E5E5"/>
<rect x="72.5" y="10" width="15" height="15" rx="7.5" fill="#E5E5E5"/>
<rect x="52.5" y="10" width="15" height="15" rx="7.5" fill="#E5E5E5"/>
<rect x="32.5" y="10" width="15" height="15" rx="7.5" fill="#E5E5E5"/>
<rect x="12.5" y="50" width="15" height="15" rx="7.5" fill="#E5E5E5"/>
<rect x="72.5" y="50" width="15" height="15" rx="7.5" fill="#E5E5E5"/>
<rect x="32.5" y="50" width="35" height="15" rx="7.5" fill="#E5E5E5"/>
<rect x="12.5" y="30" width="15" height="15" rx="7.5" fill="#E5E5E5"/>
<rect x="72.5" y="30" width="15" height="15" rx="7.5" fill="#E5E5E5"/>
<rect x="52.5" y="30" width="15" height="15" rx="7.5" fill="#E5E5E5"/>
<rect x="32.5" y="30" width="15" height="15" rx="7.5" fill="#E5E5E5"/>
</svg>
