<svg width="500" height="500" viewBox="0 0 500 500" fill="none" xmlns="http://www.w3.org/2000/svg">
<rect width="500" height="500" rx="60" fill="#141415"/>
<path d="M431 107L355 392.6H318.6L263 205.4C261.4 199.8 259.8 194.067 258.2 188.2C256.6 182.333 255.133 176.733 253.8 171.4C252.467 166.067 251.267 161.533 250.2 157.8C249.4 153.8 248.867 150.867 248.6 149C248.333 150.867 247.8 153.8 247 157.8C246.467 161.533 245.533 166.067 244.2 171.4C242.867 176.733 241.4 182.467 239.8 188.6C238.467 194.467 236.867 200.467 235 206.6L181 392.6H144.6L69 107H106.6L151 281.4C152.6 287.533 154.067 293.667 155.4 299.8C156.733 305.667 157.933 311.533 159 317.4C160.333 323 161.4 328.467 162.2 333.8C163 339.133 163.8 344.333 164.6 349.4C165.4 344.067 166.2 338.6 167 333C168.067 327.4 169.267 321.667 170.6 315.8C171.933 309.667 173.4 303.533 175 297.4C176.6 291.267 178.2 285.267 179.8 279.4L230.2 107H267.4L319.8 280.6C321.667 286.733 323.4 293 325 299.4C326.6 305.533 328.067 311.533 329.4 317.4C330.733 323.267 331.8 329 332.6 334.6C333.667 339.933 334.6 344.867 335.4 349.4C336.2 342.733 337.267 335.8 338.6 328.6C339.933 321.133 341.533 313.4 343.4 305.4C345.267 297.4 347.267 289.267 349.4 281L393.4 107H431Z" fill="white"/>
</svg>
