<svg width="64" height="64" viewBox="0 0 64 64" fill="none" xmlns="http://www.w3.org/2000/svg">
<path fill-rule="evenodd" clip-rule="evenodd" d="M8.25219 64C3.69463 64 0 60.3059 0 55.7478V8.25219C0 3.69463 3.69413 0 8.25219 0H55.7478C60.3054 0 64 3.69413 64 8.25219V55.7478C64 60.3054 60.3059 64 55.7478 64H8.25219ZM18.0187 51.375V12.625H36.254C38.0993 12.625 39.7817 12.7878 41.3013 13.1134C42.8209 13.4391 44.1234 13.9727 45.2089 14.7145C46.2943 15.4562 47.1355 16.4421 47.7325 17.6723C48.3295 18.9024 48.628 20.422 48.628 22.2311C48.628 24.1849 48.1848 25.813 47.2983 27.1155C46.4119 28.4181 45.1003 29.4854 43.3636 30.3176C45.7516 31.005 47.5335 32.208 48.7094 33.9266C49.8853 35.6453 50.4732 37.7166 50.4732 40.1408C50.4732 42.0945 50.0933 43.786 49.3335 45.2152C48.5737 46.6443 47.5516 47.8112 46.2672 48.7157C44.9827 49.6202 43.5174 50.2896 41.8711 50.7237C40.2249 51.1579 38.5334 51.375 36.7967 51.375H18.0187ZM26.5394 28.3095V19.2461H34.5173C35.2771 19.2461 36.0098 19.3095 36.7153 19.4361C37.4209 19.5627 38.045 19.7889 38.5877 20.1145C39.1304 20.4401 39.5646 20.8924 39.8902 21.4713C40.2159 22.0502 40.3787 22.7919 40.3787 23.6964C40.3787 25.3246 39.8902 26.5005 38.9133 27.2241C37.9364 27.9477 36.6882 28.3095 35.1686 28.3095H26.5394ZM26.5394 44.7539V34.1166H35.8199C37.6651 34.1166 39.1485 34.5417 40.2701 35.392C41.3918 36.2422 41.9526 37.6623 41.9526 39.6523C41.9526 40.6654 41.7807 41.4975 41.437 42.1488C41.0933 42.8001 40.6319 43.3156 40.053 43.6956C39.4741 44.0755 38.8048 44.3468 38.045 44.5096C37.2852 44.6724 36.4892 44.7539 35.657 44.7539H26.5394Z" fill="#DADADA"/>
</svg>
