<svg width="57" height="64" viewBox="0 0 57 64" fill="none" xmlns="http://www.w3.org/2000/svg">
<path fill-rule="evenodd" clip-rule="evenodd" d="M56.8641 0L51.723 57.5933L28.6136 64L5.56778 57.6023L0.432129 0H56.8641ZM28.6237 18.8394H18.654L19.2997 26.0737H28.6237H28.6481H45.0454L44.8731 27.9708L43.1067 47.7634L28.6481 51.7717L28.6156 51.7808L14.1441 47.7634L13.1543 36.6708H20.2462L20.7491 42.3052L28.6171 44.4297L28.6237 44.4274L36.503 42.3007L37.3231 33.1383H28.6481H28.6237H12.8387L10.9332 11.7746H28.6237H28.6481H46.3208L45.6883 18.8394H28.6481H28.6237Z" fill="#D9D9D9"/>
<path fill-rule="evenodd" clip-rule="evenodd" d="M43.1067 47.7634L28.6237 51.7773L28.6481 51.7717L43.1067 47.7634ZM28.6171 44.4297L28.6481 44.4215L36.503 42.3007L28.6237 44.4274L28.6171 44.4297Z" fill="#D9D9D9"/>
</svg>
