<svg xmlns="http://www.w3.org/2000/svg" width="18.194" height="18.937" viewBox="0 0 18.194 18.937">
  <g transform="translate(-378 -2536.076)">
    <g transform="translate(378 2541.109)">
      <path d="M720.833,476.932H703.652a.532.532,0,0,1-.386-.162.421.421,0,0,1-.113-.368l2.4-12.994a.493.493,0,0,1,.5-.381h12.376a.5.5,0,0,1,.5.38l2.381,12.906a.4.4,0,0,1,.033.163A.483.483,0,0,1,720.833,476.932Zm-16.582-.911h15.975L718,463.939H706.479Z" transform="translate(-703.145 -463.028)"/>
    </g>
    <path d="M720.833,476.932H703.652a.532.532,0,0,1-.386-.162.421.421,0,0,1-.113-.368l2.4-12.994a.493.493,0,0,1,.5-.381h12.376a.5.5,0,0,1,.5.38l2.381,12.906a.4.4,0,0,1,.033.163A.483.483,0,0,1,720.833,476.932Zm-16.582-.911h15.975L718,463.939H706.479Z" transform="translate(-325.145 2078.081)"/>
    <g transform="translate(382.048 2536.076)">
      <g>
        <path d="M722.9,466.161a.392.392,0,0,1-.389-.395c0-3.962-1.923-7.184-4.286-7.184s-4.286,3.222-4.286,7.184a.388.388,0,1,1-.777,0c0-4.4,2.271-7.976,5.063-7.976s5.063,3.578,5.063,7.976A.391.391,0,0,1,722.9,466.161Z" transform="translate(-713.16 -457.79)"/>
      </g>
      <g>
        <path d="M722.9,466.161a.392.392,0,0,1-.389-.395c0-3.962-1.923-7.184-4.286-7.184s-4.286,3.222-4.286,7.184a.388.388,0,1,1-.777,0c0-4.4,2.271-7.976,5.063-7.976s5.063,3.578,5.063,7.976A.391.391,0,0,1,722.9,466.161Z" transform="translate(-713.16 -457.79)"/>
      </g>
    </g>
  </g>
</svg>
