<svg width="28" height="35" viewBox="0 0 28 35" fill="none" xmlns="http://www.w3.org/2000/svg">
<path d="M24.5 7V7C22.567 7 21.0728 5.33918 20.1449 3.64342C18.9568 1.47187 16.6511 0 14 0C11.3489 0 9.04323 1.47187 7.85508 3.64342C6.92725 5.33919 5.433 7 3.5 7V7C1.575 7 0 8.575 0 10.5V31.5C0 33.425 1.575 35 3.5 35H24.5C26.425 35 28 33.425 28 31.5V10.5C28 8.575 26.425 7 24.5 7ZM14 3.5C14.6936 3.5 15.3418 3.70449 15.8873 4.05617C17.5118 5.10363 15.933 7 14 7V7C12.067 7 10.4882 5.10363 12.1127 4.05617C12.6582 3.70449 13.3064 3.5 14 3.5Z" fill="black"/>
</svg>
