<svg width="500" height="500" viewBox="0 0 500 500" fill="none" xmlns="http://www.w3.org/2000/svg">
<circle cx="250" cy="250" r="250" fill="black"/>
<path d="M426.602 170.129C426.602 174.559 425.805 178.484 424.211 181.906C422.641 185.305 420.391 187.941 417.461 189.816C414.531 191.668 411.156 192.594 407.336 192.594C401.57 192.594 396.906 190.543 393.344 186.441C389.781 182.34 388 176.809 388 169.848V162.465C388 158.059 388.785 154.145 390.355 150.723C391.949 147.301 394.211 144.664 397.141 142.812C400.094 140.938 403.469 140 407.266 140C411.086 140 414.461 140.938 417.391 142.812C420.344 144.664 422.617 147.312 424.211 150.758C425.805 154.18 426.602 158.082 426.602 162.465V170.129ZM424.703 162.395C424.703 156.207 423.133 151.25 419.992 147.523C416.852 143.773 412.609 141.898 407.266 141.898C401.992 141.898 397.785 143.762 394.645 147.488C391.504 151.191 389.934 156.242 389.934 162.641V170.129C389.934 174.207 390.637 177.816 392.043 180.957C393.473 184.074 395.5 186.477 398.125 188.164C400.75 189.852 403.82 190.695 407.336 190.695C412.68 190.695 416.91 188.832 420.027 185.105C423.145 181.379 424.703 176.293 424.703 169.848V162.395Z" fill="white"/>
<path d="M421.855 250.719H395.629V275.891H393.73V224.703H425.441V226.602H395.629V248.75H421.855V250.719Z" fill="white"/>
<path d="M421.855 334.719H395.629V359.891H393.73V308.703H425.441V310.602H395.629V332.75H421.855V334.719Z" fill="white"/>
<path d="M67.8828 258.492L75.5977 186.812H151.965V207.32H95.3242L91.418 241.305C97.9935 237.529 105.415 235.641 113.684 235.641C127.225 235.641 137.74 239.97 145.227 248.629C152.779 257.288 156.555 268.941 156.555 283.59C156.555 298.043 152.388 309.566 144.055 318.16C135.721 326.689 124.296 330.953 109.777 330.953C96.7565 330.953 85.9492 327.275 77.3555 319.918C68.8268 312.496 64.2044 302.73 63.4883 290.621H86.4375C87.349 297.522 89.8229 302.828 93.8594 306.539C97.8958 310.185 103.169 312.008 109.68 312.008C116.971 312.008 122.635 309.404 126.672 304.195C130.773 298.987 132.824 291.891 132.824 282.906C132.824 274.247 130.578 267.411 126.086 262.398C121.594 257.32 115.409 254.781 107.531 254.781C103.234 254.781 99.5885 255.367 96.5938 256.539C93.599 257.646 90.3438 259.859 86.8281 263.18L67.8828 258.492ZM247.883 269.137C247.883 289.579 244.042 305.009 236.359 315.426C228.742 325.777 217.121 330.953 201.496 330.953C186.132 330.953 174.543 325.908 166.73 315.816C158.983 305.66 155.012 290.654 154.816 270.797V246.188C154.816 225.745 158.625 210.413 166.242 200.191C173.924 189.97 185.611 184.859 201.301 184.859C216.861 184.859 228.449 189.84 236.066 199.801C243.749 209.762 247.688 224.671 247.883 244.527V269.137ZM224.152 242.574C224.152 229.228 222.329 219.462 218.684 213.277C215.038 207.027 209.243 203.902 201.301 203.902C193.553 203.902 187.857 206.865 184.211 212.789C180.565 218.648 178.645 227.828 178.449 240.328V272.555C178.449 285.836 180.305 295.732 184.016 302.242C187.727 308.753 193.553 312.008 201.496 312.008C209.113 312.008 214.745 309.013 218.391 303.023C222.036 296.969 223.957 287.529 224.152 274.703V242.574ZM247.902 214.156C247.902 205.562 250.669 198.531 256.203 193.062C261.737 187.529 268.996 184.762 277.98 184.762C287.095 184.762 294.387 187.529 299.855 193.062C305.389 198.531 308.156 205.725 308.156 214.645V221.676C308.156 230.204 305.389 237.203 299.855 242.672C294.387 248.141 287.16 250.875 278.176 250.875C269.387 250.875 262.128 248.206 256.398 242.867C250.734 237.464 247.902 230.204 247.902 221.09V214.156ZM264.504 221.676C264.504 226.168 265.741 229.814 268.215 232.613C270.754 235.348 274.074 236.715 278.176 236.715C282.212 236.715 285.467 235.348 287.941 232.613C290.415 229.814 291.652 226.038 291.652 221.285V214.156C291.652 209.664 290.383 206.018 287.844 203.219C285.37 200.419 282.082 199.02 277.98 199.02C273.879 199.02 270.591 200.452 268.117 203.316C265.708 206.116 264.504 209.827 264.504 214.449V221.676ZM316.262 294.137C316.262 285.413 319.094 278.349 324.758 272.945C330.422 267.542 337.648 264.84 346.438 264.84C355.292 264.84 362.518 267.542 368.117 272.945C373.781 278.349 376.613 285.641 376.613 294.82V301.754C376.613 310.217 373.879 317.216 368.41 322.75C363.007 328.219 355.747 330.953 346.633 330.953C337.518 330.953 330.161 328.251 324.562 322.848C319.029 317.379 316.262 310.185 316.262 301.266V294.137ZM332.863 301.754C332.863 306.181 334.133 309.827 336.672 312.691C339.276 315.491 342.596 316.891 346.633 316.891C350.799 316.891 354.055 315.556 356.398 312.887C358.807 310.152 360.012 306.344 360.012 301.461V294.137C360.012 289.579 358.742 285.934 356.203 283.199C353.664 280.465 350.409 279.098 346.438 279.098C342.401 279.098 339.113 280.465 336.574 283.199C334.1 285.934 332.863 289.71 332.863 294.527V301.754ZM283.059 318.355L270.852 311.324L340.285 200.191L352.492 207.223L283.059 318.355Z" fill="white"/>
</svg>
