<svg width="500" height="500" viewBox="0 0 500 500" fill="none" xmlns="http://www.w3.org/2000/svg">
<circle cx="250" cy="250" r="250" fill="black"/>
<path d="M208.741 193.714V214.223H206.938V165.667H222.128C227.091 165.667 230.941 166.923 233.678 169.435C236.438 171.926 237.818 175.394 237.818 179.84C237.818 184.243 236.471 187.644 233.779 190.045C231.108 192.446 227.302 193.669 222.361 193.714H208.741ZM208.741 191.913H222.128C226.512 191.913 229.917 190.857 232.343 188.745C234.791 186.633 236.015 183.687 236.015 179.907C236.015 175.994 234.791 172.948 232.343 170.769C229.917 168.568 226.512 167.468 222.128 167.468H208.741V191.913Z" fill="white"/>
<path d="M279 193.58C279 197.782 278.244 201.506 276.73 204.752C275.239 207.976 273.103 210.477 270.321 212.256C267.539 214.012 264.334 214.89 260.706 214.89C255.231 214.89 250.802 212.945 247.419 209.054C244.036 205.164 242.345 199.917 242.345 193.313V186.31C242.345 182.13 243.09 178.418 244.582 175.172C246.095 171.926 248.243 169.424 251.025 167.668C253.829 165.889 257.034 165 260.639 165C264.267 165 267.472 165.889 270.254 167.668C273.058 169.424 275.217 171.937 276.73 175.205C278.244 178.451 279 182.153 279 186.31V193.58ZM277.198 186.243C277.198 180.374 275.707 175.672 272.724 172.137C269.742 168.579 265.714 166.801 260.639 166.801C255.632 166.801 251.637 168.568 248.654 172.103C245.672 175.616 244.181 180.407 244.181 186.477V193.58C244.181 197.449 244.849 200.873 246.184 203.852C247.542 206.809 249.467 209.088 251.959 210.688C254.452 212.289 257.368 213.09 260.706 213.09C265.78 213.09 269.798 211.322 272.758 207.787C275.718 204.252 277.198 199.428 277.198 193.313V186.243Z" fill="white"/>
<path d="M305.194 193.447H288.335V214.223H286.532V165.667H302.022C306.896 165.667 310.769 166.923 313.64 169.435C316.533 171.948 317.98 175.36 317.98 179.674C317.98 182.986 316.945 185.888 314.875 188.378C312.827 190.846 310.212 192.38 307.03 192.98L320.016 213.757V214.223H318.113L305.194 193.447ZM288.335 191.646H303.658C307.397 191.646 310.413 190.512 312.705 188.244C315.02 185.977 316.177 183.12 316.177 179.674C316.177 175.894 314.897 172.915 312.338 170.736C309.801 168.557 306.317 167.468 301.889 167.468H288.335V191.646Z" fill="white"/>
<path d="M215.907 308.32H208.295V321.415H204V289.044H214.727C218.377 289.044 221.182 289.874 223.14 291.534C225.114 293.194 226.1 295.61 226.1 298.782C226.1 300.798 225.551 302.554 224.453 304.051C223.37 305.548 221.857 306.668 219.913 307.409L227.525 321.148V321.415H222.94L215.907 308.32ZM208.295 304.83H214.861C216.983 304.83 218.667 304.281 219.913 303.184C221.174 302.088 221.805 300.62 221.805 298.782C221.805 296.781 221.204 295.247 220.002 294.18C218.815 293.113 217.094 292.572 214.839 292.557H208.295V304.83Z" fill="white"/>
<path d="M245.12 313.078C245.12 311.714 244.638 310.566 243.674 309.632C242.724 308.698 241.114 307.853 238.844 307.097C235.684 306.134 233.376 304.881 231.922 303.34C230.483 301.784 229.764 299.812 229.764 297.426C229.764 294.995 230.468 293.002 231.878 291.445C233.302 289.889 235.253 288.963 237.731 288.666V283.797H241.047V288.689C243.54 289.029 245.476 290.074 246.856 291.823C248.251 293.572 248.948 295.966 248.948 299.005H244.853C244.853 296.915 244.356 295.255 243.362 294.024C242.368 292.794 241.025 292.179 239.334 292.179C237.568 292.179 236.218 292.639 235.283 293.558C234.348 294.462 233.881 295.729 233.881 297.359C233.881 298.871 234.371 300.079 235.35 300.983C236.344 301.873 237.969 302.688 240.224 303.429C242.494 304.155 244.26 304.963 245.521 305.852C246.797 306.727 247.732 307.75 248.325 308.92C248.933 310.091 249.238 311.462 249.238 313.034C249.238 315.538 248.481 317.554 246.967 319.081C245.469 320.607 243.362 321.512 240.647 321.793V326.04H237.353V321.793C234.593 321.541 232.427 320.563 230.854 318.859C229.296 317.139 228.517 314.812 228.517 311.877H232.635C232.635 313.938 233.176 315.524 234.259 316.635C235.342 317.747 236.878 318.303 238.866 318.303C240.81 318.303 242.338 317.836 243.451 316.902C244.564 315.968 245.12 314.694 245.12 313.078Z" fill="white"/>
<path d="M297.368 262.676L271.462 321.415H260.112L285.973 265.344H252.456V256.673H297.368V262.676Z" fill="white"/>
<path d="M332.159 294.336C328.539 298.16 324.31 300.072 319.473 300.072C313.775 300.072 309.235 298.086 305.852 294.113C302.469 290.111 300.778 284.865 300.778 278.373C300.778 274.104 301.639 270.235 303.36 266.767C305.081 263.299 307.529 260.601 310.704 258.674C313.879 256.747 317.559 255.784 321.743 255.784C328.272 255.784 333.45 258.215 337.278 263.076C341.106 267.938 343.02 274.445 343.02 282.597V285.62C343.02 297.3 340.379 306.208 335.097 312.344C329.815 318.481 321.936 321.593 311.461 321.682H310.17V312.744H311.728C318.108 312.656 323.004 311.129 326.417 308.165C329.829 305.17 331.743 300.561 332.159 294.336ZM321.743 291.623C323.909 291.623 325.942 291.001 327.841 289.756C329.74 288.511 331.209 286.791 332.248 284.598V280.373C332.248 275.601 331.269 271.762 329.31 268.857C327.352 265.952 324.814 264.499 321.699 264.499C318.583 264.499 316.09 265.789 314.221 268.368C312.381 270.917 311.461 274.148 311.461 278.061C311.461 282.122 312.396 285.398 314.265 287.888C316.135 290.378 318.627 291.623 321.743 291.623Z" fill="white"/>
<path d="M350.97 336L345.139 332.532C346.86 329.834 348.032 327.477 348.655 325.462C349.308 323.476 349.649 321.445 349.679 319.37V310.966H359.427L359.382 318.747C359.353 321.89 358.552 325.032 356.979 328.174C355.436 331.346 353.433 333.955 350.97 336Z" fill="white"/>
<path d="M394.885 294.336C391.265 298.16 387.036 300.072 382.199 300.072C376.502 300.072 371.961 298.086 368.579 294.113C365.196 290.111 363.504 284.865 363.504 278.373C363.504 274.104 364.365 270.235 366.086 266.767C367.807 263.299 370.255 260.601 373.43 258.674C376.606 256.747 380.285 255.784 384.469 255.784C390.998 255.784 396.176 258.215 400.004 263.076C403.832 267.938 405.746 274.445 405.746 282.597V285.62C405.746 297.3 403.105 306.208 397.823 312.344C392.541 318.481 384.662 321.593 374.187 321.682H372.896V312.744H374.454C380.834 312.656 385.731 311.129 389.143 308.165C392.556 305.17 394.47 300.561 394.885 294.336ZM384.469 291.623C386.636 291.623 388.668 291.001 390.568 289.756C392.467 288.511 393.936 286.791 394.974 284.598V280.373C394.974 275.601 393.995 271.762 392.036 268.857C390.078 265.952 387.541 264.499 384.425 264.499C381.309 264.499 378.816 265.789 376.947 268.368C375.107 270.917 374.187 274.148 374.187 278.061C374.187 282.122 375.122 285.398 376.991 287.888C378.861 290.378 381.354 291.623 384.469 291.623Z" fill="white"/>
<path d="M442.139 294.336C438.519 298.16 434.29 300.072 429.453 300.072C423.756 300.072 419.215 298.086 415.832 294.113C412.45 290.111 410.758 284.865 410.758 278.373C410.758 274.104 411.619 270.235 413.34 266.767C415.061 263.299 417.509 260.601 420.684 258.674C423.859 256.747 427.539 255.784 431.723 255.784C438.252 255.784 443.43 258.215 447.258 263.076C451.086 267.938 453 274.445 453 282.597V285.62C453 297.3 450.359 306.208 445.077 312.344C439.795 318.481 431.916 321.593 421.441 321.682H420.15V312.744H421.708C428.088 312.656 432.984 311.129 436.397 308.165C439.81 305.17 441.724 300.561 442.139 294.336ZM431.723 291.623C433.89 291.623 435.922 291.001 437.821 289.756C439.721 288.511 441.189 286.791 442.228 284.598V280.373C442.228 275.601 441.249 271.762 439.29 268.857C437.332 265.952 434.795 264.499 431.679 264.499C428.563 264.499 426.07 265.789 424.201 268.368C422.361 270.917 421.441 274.148 421.441 278.061C421.441 282.122 422.376 285.398 424.245 287.888C426.115 290.378 428.607 291.623 431.723 291.623Z" fill="white"/>
<path d="M188.609 353.562H50.9375V330.078L119.141 255.688C128.984 244.719 135.969 235.578 140.094 228.266C144.312 220.859 146.422 213.453 146.422 206.047C146.422 196.297 143.656 188.422 138.125 182.422C132.688 176.422 125.328 173.422 116.047 173.422C104.984 173.422 96.4062 176.797 90.3125 183.547C84.2188 190.297 81.1719 199.531 81.1719 211.25H47C47 198.781 49.8125 187.578 55.4375 177.641C61.1562 167.609 69.2656 159.828 79.7656 154.297C90.3594 148.766 102.547 146 116.328 146C136.203 146 151.859 151.016 163.297 161.047C174.828 170.984 180.594 184.766 180.594 202.391C180.594 212.609 177.688 223.344 171.875 234.594C166.156 245.75 156.734 258.453 143.609 272.703L93.5469 326.281H188.609V353.562Z" fill="white"/>
</svg>
