<svg width="140" height="140" viewBox="0 0 140 140" fill="none" xmlns="http://www.w3.org/2000/svg">
<path d="M38.5001 28.0001C36.4234 28.0001 34.3933 28.6159 32.6666 29.7697C30.9399 30.9234 29.5941 32.5633 28.7994 34.4819C28.0047 36.4006 27.7967 38.5118 28.2019 40.5486C28.607 42.5854 29.607 44.4563 31.0755 45.9247C32.5439 47.3932 34.4149 48.3932 36.4517 48.7984C38.4885 49.2035 40.5997 48.9956 42.5183 48.2009C44.4369 47.4061 46.0768 46.0603 47.2306 44.3336C48.3843 42.6069 49.0001 40.5768 49.0001 38.5001C49.0001 35.7153 47.8939 33.0446 45.9247 31.0755C43.9556 29.1064 41.2849 28.0001 38.5001 28.0001V28.0001ZM133.84 60.9701L74.9701 2.03012C74.316 1.38135 73.5403 0.868071 72.6875 0.519718C71.8346 0.171366 70.9214 -0.00520925 70.0001 0.000117H7.00012C5.1436 0.000117 3.36312 0.737615 2.05037 2.05037C0.737615 3.36312 0.000117 5.1436 0.000117 7.00012V70.0001C-0.00520925 70.9214 0.171366 71.8346 0.519718 72.6875C0.868071 73.5403 1.38135 74.316 2.03012 74.9701L60.9701 133.84C64.9076 137.773 70.2451 139.982 75.8101 139.982C81.3751 139.982 86.7126 137.773 90.6501 133.84L133.84 91.0001C137.773 87.0626 139.982 81.7251 139.982 76.1601C139.982 70.5951 137.773 65.2576 133.84 61.3201V60.9701ZM123.97 80.7101L80.7101 123.9C79.3986 125.204 77.6244 125.936 75.7751 125.936C73.9258 125.936 72.1517 125.204 70.8401 123.9L14.0001 67.1301V14.0001H67.1301L123.97 70.8401C124.619 71.4942 125.132 72.2699 125.481 73.1228C125.829 73.9756 126.005 74.8889 126 75.8101C125.992 77.6465 125.263 79.4063 123.97 80.7101V80.7101Z" fill="#373737"/>
</svg>
