<svg width="64" height="40" viewBox="0 0 64 40" fill="none" xmlns="http://www.w3.org/2000/svg">
<path d="M32 0.800049C23.4667 0.800049 18.1333 5.06672 16 13.6C19.2 9.33338 22.9333 7.73338 27.2 8.80005C29.6344 9.40864 31.3743 11.1747 33.3003 13.1296C36.4377 16.3142 40.0689 20 48 20C56.5333 20 61.8667 15.7334 64 7.20005C60.8 11.4667 57.0667 13.0667 52.8 12C50.3656 11.3915 48.6257 9.62541 46.6997 7.67045C43.5623 4.48586 39.9311 0.800049 32 0.800049ZM16 20C7.46667 20 2.13333 24.2667 0 32.8C3.2 28.5334 6.93333 26.9334 11.2 28C13.6344 28.6086 15.3743 30.3747 17.3003 32.3296C20.4377 35.5142 24.0689 39.2001 32 39.2001C40.5333 39.2001 45.8667 34.9334 48 26.4C44.8 30.6667 41.0667 32.2667 36.8 31.2C34.3656 30.5915 32.6257 28.8254 30.6997 26.8704C27.5623 23.6859 23.9311 20 16 20Z" fill="#DADADA"/>
</svg>
