<svg width="375" height="250" viewBox="0 0 375 250" fill="none" xmlns="http://www.w3.org/2000/svg">
<rect width="375" height="250" fill="black"/>
<path d="M72.6469 131.367C72.6469 137.25 71.3109 141.949 68.6391 145.465C65.9672 148.957 62.3813 150.703 57.8813 150.703C53.7094 150.703 50.3695 149.332 47.8617 146.59V164.625H39.3188V111.961H47.1938L47.5453 115.828C50.0531 112.781 53.4633 111.258 57.7758 111.258C62.4164 111.258 66.0492 112.992 68.6742 116.461C71.3227 119.906 72.6469 124.699 72.6469 130.84V131.367ZM64.1391 130.629C64.1391 126.832 63.3773 123.82 61.8539 121.594C60.3539 119.367 58.1977 118.254 55.3852 118.254C51.893 118.254 49.3852 119.695 47.8617 122.578V139.453C49.4086 142.406 51.9398 143.883 55.4555 143.883C58.1742 143.883 60.2953 142.793 61.8188 140.613C63.3656 138.41 64.1391 135.082 64.1391 130.629ZM95.4352 150C95.0602 149.273 94.732 148.09 94.4508 146.449C91.732 149.285 88.4039 150.703 84.4664 150.703C80.6461 150.703 77.5289 149.613 75.1148 147.434C72.7008 145.254 71.4938 142.559 71.4938 139.348C71.4938 135.293 72.9938 132.188 75.9938 130.031C79.0172 127.852 83.3297 126.762 88.9313 126.762H94.1695V124.266C94.1695 122.297 93.6188 120.727 92.5172 119.555C91.4156 118.359 89.7398 117.762 87.4898 117.762C85.5445 117.762 83.9508 118.254 82.7086 119.238C81.4664 120.199 80.8453 121.43 80.8453 122.93H72.3023C72.3023 120.844 72.9938 118.898 74.3766 117.094C75.7594 115.266 77.6344 113.836 80.0016 112.805C82.3922 111.773 85.0523 111.258 87.982 111.258C92.4352 111.258 95.9859 112.383 98.6344 114.633C101.283 116.859 102.642 120 102.713 124.055V141.211C102.713 144.633 103.193 147.363 104.154 149.402V150H95.4352ZM86.0484 143.848C87.7359 143.848 89.318 143.438 90.7945 142.617C92.2945 141.797 93.4195 140.695 94.1695 139.312V132.141H89.5641C86.4 132.141 84.0211 132.691 82.4273 133.793C80.8336 134.895 80.0367 136.453 80.0367 138.469C80.0367 140.109 80.5758 141.422 81.6539 142.406C82.7555 143.367 84.2203 143.848 86.0484 143.848ZM102.966 130.699C102.966 124.793 104.348 120.082 107.114 116.566C109.903 113.027 113.595 111.258 118.188 111.258C122.524 111.258 125.934 112.77 128.419 115.793L128.805 111.961H136.505V148.84C136.505 153.832 134.946 157.77 131.829 160.652C128.735 163.535 124.552 164.977 119.278 164.977C116.489 164.977 113.759 164.391 111.087 163.219C108.438 162.07 106.423 160.559 105.04 158.684L109.083 153.551C111.708 156.668 114.942 158.227 118.786 158.227C121.622 158.227 123.86 157.453 125.501 155.906C127.141 154.383 127.962 152.133 127.962 149.156V146.59C125.501 149.332 122.22 150.703 118.118 150.703C113.665 150.703 110.02 148.934 107.184 145.395C104.372 141.855 102.966 136.957 102.966 130.699ZM111.473 131.438C111.473 135.258 112.247 138.27 113.794 140.473C115.364 142.652 117.532 143.742 120.298 143.742C123.743 143.742 126.298 142.266 127.962 139.312V122.578C126.345 119.695 123.813 118.254 120.368 118.254C117.555 118.254 115.364 119.367 113.794 121.594C112.247 123.82 111.473 127.102 111.473 131.438ZM160.84 150C160.465 149.273 160.137 148.09 159.855 146.449C157.137 149.285 153.809 150.703 149.871 150.703C146.051 150.703 142.934 149.613 140.52 147.434C138.105 145.254 136.898 142.559 136.898 139.348C136.898 135.293 138.398 132.188 141.398 130.031C144.422 127.852 148.734 126.762 154.336 126.762H159.574V124.266C159.574 122.297 159.023 120.727 157.922 119.555C156.82 118.359 155.145 117.762 152.895 117.762C150.949 117.762 149.355 118.254 148.113 119.238C146.871 120.199 146.25 121.43 146.25 122.93H137.707C137.707 120.844 138.398 118.898 139.781 117.094C141.164 115.266 143.039 113.836 145.406 112.805C147.797 111.773 150.457 111.258 153.387 111.258C157.84 111.258 161.391 112.383 164.039 114.633C166.688 116.859 168.047 120 168.117 124.055V141.211C168.117 144.633 168.598 147.363 169.559 149.402V150H160.84ZM151.453 143.848C153.141 143.848 154.723 143.438 156.199 142.617C157.699 141.797 158.824 140.695 159.574 139.312V132.141H154.969C151.805 132.141 149.426 132.691 147.832 133.793C146.238 134.895 145.441 136.453 145.441 138.469C145.441 140.109 145.98 141.422 147.059 142.406C148.16 143.367 149.625 143.848 151.453 143.848ZM177.898 111.961L178.144 115.934C180.816 112.816 184.472 111.258 189.113 111.258C194.198 111.258 197.679 113.203 199.554 117.094C202.32 113.203 206.21 111.258 211.226 111.258C215.421 111.258 218.538 112.418 220.577 114.738C222.64 117.059 223.695 120.48 223.741 125.004V150H215.198V125.25C215.198 122.836 214.671 121.066 213.616 119.941C212.562 118.816 210.816 118.254 208.378 118.254C206.433 118.254 204.839 118.781 203.597 119.836C202.378 120.867 201.523 122.227 201.03 123.914L201.066 150H192.523V124.969C192.405 120.492 190.12 118.254 185.667 118.254C182.245 118.254 179.82 119.648 178.39 122.438V150H169.847V111.961H177.898ZM242.065 150.703C236.651 150.703 232.256 149.004 228.881 145.605C225.53 142.184 223.854 137.637 223.854 131.965V130.91C223.854 127.113 224.58 123.727 226.034 120.75C227.51 117.75 229.573 115.418 232.221 113.754C234.87 112.09 237.823 111.258 241.08 111.258C246.26 111.258 250.256 112.91 253.069 116.215C255.905 119.52 257.323 124.195 257.323 130.242V133.688H232.467C232.725 136.828 233.768 139.312 235.596 141.141C237.448 142.969 239.768 143.883 242.557 143.883C246.471 143.883 249.659 142.301 252.12 139.137L256.725 143.531C255.202 145.805 253.163 147.574 250.608 148.84C248.077 150.082 245.229 150.703 242.065 150.703ZM241.045 118.113C238.702 118.113 236.803 118.934 235.35 120.574C233.92 122.215 233.006 124.5 232.608 127.43H248.885V126.797C248.698 123.938 247.936 121.781 246.6 120.328C245.264 118.852 243.413 118.113 241.045 118.113ZM264.713 111.961L264.959 116.355C267.771 112.957 271.463 111.258 276.033 111.258C283.955 111.258 287.986 115.793 288.127 124.863V150H279.584V125.355C279.584 122.941 279.056 121.16 278.002 120.012C276.97 118.84 275.271 118.254 272.904 118.254C269.459 118.254 266.892 119.812 265.205 122.93V150H256.662V111.961H264.713ZM300.368 102.715V111.961H307.083V118.289H300.368V139.523C300.368 140.977 300.649 142.031 301.212 142.688C301.798 143.32 302.829 143.637 304.305 143.637C305.29 143.637 306.286 143.52 307.294 143.285V149.895C305.348 150.434 303.473 150.703 301.669 150.703C295.106 150.703 291.825 147.082 291.825 139.84V118.289H285.567V111.961H291.825V102.715H300.368ZM303.785 130.629C303.785 126.902 304.523 123.551 306 120.574C307.477 117.574 309.551 115.277 312.223 113.684C314.895 112.066 317.965 111.258 321.434 111.258C326.566 111.258 330.727 112.91 333.914 116.215C337.125 119.52 338.859 123.902 339.117 129.363L339.152 131.367C339.152 135.117 338.426 138.469 336.973 141.422C335.543 144.375 333.48 146.66 330.785 148.277C328.113 149.895 325.02 150.703 321.504 150.703C316.137 150.703 311.836 148.922 308.602 145.359C305.391 141.773 303.785 137.004 303.785 131.051V130.629ZM312.328 131.367C312.328 135.281 313.137 138.352 314.754 140.578C316.371 142.781 318.621 143.883 321.504 143.883C324.387 143.883 326.625 142.758 328.219 140.508C329.836 138.258 330.645 134.965 330.645 130.629C330.645 126.785 329.812 123.738 328.148 121.488C326.508 119.238 324.27 118.113 321.434 118.113C318.645 118.113 316.43 119.227 314.789 121.453C313.148 123.656 312.328 126.961 312.328 131.367Z" fill="white"/>
</svg>
